<svg width="20" height="20" 
  xmlns="http://www.w3.org/2000/svg">
  <path d="M.075 14.092c-.06.288.089.58.358.7A17.125 17.125 0 007.342 16.4a10.942 10.942 0 006.05-1.717 10.608 10.608 0 004.8-8.8v-.375l1.491-1.075a.625.625 0 00-.125-1.1l-1.158-.5.65-1.416a.625.625 0 00-.767-.834l-1.808.6a4.333 4.333 0 00-2.667-.925 4.383 4.383 0 00-4.375 4.375v.3C7.167 5.2 5 4.042 2.617 1.308a.625.625 0 00-1.084.292 6.5 6.5 0 00.409 4.233l-1.159-.15a.625.625 0 00-.708.742 4.483 4.483 0 002.192 3.267l-.542.2a.625.625 0 00-.342.833A3.983 3.983 0 004.35 12.9a9.85 9.85 0 01-3.658.667.625.625 0 00-.617.525zm6.592-1.034a.625.625 0 00-.317-1.125c-1.767-.141-2.808-.358-3.475-1.141l1.558-.567a.625.625 0 00-.141-1.208A3.075 3.075 0 011.55 7.075l1.783.267a.625.625 0 00.509-1.084 3.792 3.792 0 01-1.225-3.116c2.5 2.5 5 3.475 7.575 2.941a.625.625 0 00.5-.608v-.833a3.108 3.108 0 015.225-2.292.625.625 0 00.625.133l.775-.258-.317.692a.625.625 0 000 .491c.075.192.092.234 1.067.659l-.834.616a.625.625 0 00-.258.509v.691a9.342 9.342 0 01-4.225 7.75c-2.5 1.667-5.792 1.942-9.35.909a9.258 9.258 0 003.267-1.484z" fill="#100f10" fill-rule="nonzero"/>
</svg>
