<svg width="20" height="20" viewBox="0 0 22 22" 
  xmlns="http://www.w3.org/2000/svg">
  <g stroke="#100f10" stroke-linecap="round" stroke-linejoin="round" stroke-width="1.5" fill="none" fill-rule="evenodd">
    <path d="M12.323 20.284c-.438.06-.88.091-1.323.091a9.38 9.38 0 119.28-8.048"/>
    <path d="M8.74 20.1c-1.267-1.86-2.116-5.24-2.116-9.1 0-3.86.849-7.24 2.117-9.1M1.645 10.375h8.729M14.749 10.375h5.625M3.499 5.375H18.5M2.706 15.375h7.043M13.258 1.9c1.124 1.647 1.917 4.487 2.084 7.798.011.227.02.453.025.678M12.047 12.66l3.423 7.477a.447.447 0 00.822-.083l1-2.762 2.763-1a.448.448 0 00.083-.823l-7.477-3.423a.47.47 0 00-.614.614z"/>
  </g>
</svg>
