<svg width="20" height="20" viewBox="0 0 22 21" 
  xmlns="http://www.w3.org/2000/svg">
  <g fill="none" fill-rule="evenodd">
    <path d="M13.008 19.625a.417.417 0 00.534.4 9.375 9.375 0 10-5.2 0 .417.417 0 00.533-.4v-1.958A2.342 2.342 0 016 16.233a5.058 5.058 0 00-1.133-1.9c2.375.575 2.416 2.117 4.033 1.392.049-.54.23-1.061.525-1.517-1.833-.208-3.767-.5-3.767-3.666a3.2 3.2 0 01.834-2.217 2.967 2.967 0 01.083-2.183s.692-.225 2.275.833a7.825 7.825 0 014.167 0c1.575-1.067 2.266-.833 2.266-.833.305.69.335 1.471.084 2.183.551.605.85 1.398.833 2.217 0 3.175-1.933 3.458-3.775 3.658.394.569.593 1.25.567 1.942l.016 3.483z" stroke="#100f10" stroke-linecap="round" stroke-linejoin="round" stroke-width="1.5"/>
  </g>
</svg>
