<svg width="44" height="45" viewBox="0 0 22 22" 
  xmlns="http://www.w3.org/2000/svg" fill-rule="evenodd" clip-rule="evenodd" stroke-linejoin="round" stroke-miterlimit="2">
  <path d="M19.439 4.177a2.1 2.1 0 01-2.061-2.111A2.1 2.1 0 0119.485 0a2.155 2.155 0 011.511.649c.397.406.613.952.603 1.516a2.102 2.102 0 01-2.16 2.012zM2.061 21.999A2.099 2.099 0 010 19.887a2.1 2.1 0 012.111-2.065 2.138 2.138 0 012.11 2.162 2.102 2.102 0 01-2.16 2.015zm3.758-7.595a6.172 6.172 0 01-.969-3.328c-.055-3.309 2.606-6.038 5.95-6.102a5.815 5.815 0 013.242.993l2.297-2.355a8.959 8.959 0 00-5.546-1.926c-5.15.091-9.251 4.297-9.158 9.394a9.486 9.486 0 001.881 5.682l2.303-2.358zm9.961-6.656c.636.996.972 2.15.97 3.328.055 3.311-2.611 6.041-5.957 6.1a5.804 5.804 0 01-3.241-.993l-2.297 2.356a8.97 8.97 0 005.538 1.93 9.372 9.372 0 006.546-2.82 9.18 9.18 0 002.614-6.575 9.482 9.482 0 00-1.879-5.683L15.78 7.748z" fill="#ffffff"/>
</svg>
