<svg width="647" height="105" 
  xmlns="http://www.w3.org/2000/svg">
  <g fill="#ffffff" fill-rule="evenodd">
    <path d="M97.758 29.096L111.53 65.89h.205l12.23-36.793h12.847l-23.33 61.461c-.89 2.32-1.85 4.375-2.877 6.167-1.028 1.793-2.261 3.304-3.7 4.534s-3.135 2.16-5.087 2.793c-1.953.633-4.3.949-7.04.949-1.028 0-2.073-.053-3.135-.158a21.628 21.628 0 01-3.237-.58l1.027-10.964c.823.281 1.628.475 2.416.58.788.105 1.524.158 2.21.158 1.301 0 2.397-.158 3.288-.474a5.555 5.555 0 002.261-1.476c.617-.668 1.165-1.494 1.644-2.478.48-.984.994-2.143 1.542-3.478l2.467-6.431-21.172-50.603h13.67zM58.89 27.62c3.22 0 5.978.58 8.273 1.74 2.296 1.16 4.18 2.688 5.653 4.586 1.473 1.897 2.552 4.076 3.237 6.536a28.155 28.155 0 011.028 7.59V79.7H64.747V51.657a36.81 36.81 0 00-.308-4.639c-.206-1.616-.65-3.075-1.336-4.375a9.014 9.014 0 00-2.826-3.215c-1.2-.844-2.792-1.265-4.78-1.265-1.918 0-3.562.421-4.932 1.265-1.37.843-2.501 1.932-3.392 3.268-.89 1.335-1.542 2.829-1.953 4.48a20.238 20.238 0 00-.616 4.902v27.62H32.27V49.128c0-3.163-.737-5.781-2.21-7.854-1.473-2.074-3.785-3.11-6.937-3.11-1.85 0-3.46.404-4.83 1.212-1.37.808-2.484 1.845-3.34 3.11-.857 1.265-1.508 2.723-1.953 4.375a19.154 19.154 0 00-.668 5.007V79.7H0V29.096h11.716v8.118h.206a15.05 15.05 0 012.21-3.584 17.403 17.403 0 013.288-3.058c1.268-.913 2.724-1.634 4.368-2.16 1.644-.528 3.46-.792 5.447-.792 3.837 0 7.023.879 9.558 2.636 2.535 1.757 4.488 4.076 5.858 6.958 1.644-3.093 3.837-5.464 6.577-7.116 2.741-1.652 5.961-2.478 9.661-2.478zm85.549 1.476h12.333V79.7h-12.333V29.096zm-1.747-17.183c0-2.039.736-3.813 2.21-5.324 1.472-1.511 3.34-2.267 5.6-2.267 2.261 0 4.163.72 5.704 2.161 1.542 1.441 2.313 3.25 2.313 5.43 0 2.178-.771 3.988-2.313 5.429-1.541 1.44-3.443 2.161-5.704 2.161-2.26 0-4.128-.756-5.6-2.267-1.474-1.51-2.21-3.285-2.21-5.323zm62.815 31.204c-.96-1.405-2.398-2.582-4.317-3.531-1.918-.949-3.87-1.423-5.858-1.423-2.26 0-4.248.474-5.96 1.423a13.037 13.037 0 00-4.266 3.742c-1.13 1.547-1.97 3.286-2.518 5.219a21.349 21.349 0 00-.822 5.85c0 1.968.291 3.919.874 5.851a16.508 16.508 0 002.62 5.219 13.401 13.401 0 004.368 3.742c1.747.95 3.786 1.424 6.115 1.424 1.919 0 3.837-.387 5.756-1.16 1.918-.773 3.46-1.898 4.624-3.374l7.708 8.012c-2.055 2.25-4.676 3.989-7.862 5.219-3.186 1.23-6.629 1.845-10.328 1.845-3.632 0-7.075-.598-10.33-1.792-3.254-1.195-6.097-2.952-8.53-5.272-2.432-2.319-4.35-5.13-5.755-8.433-1.404-3.304-2.107-7.064-2.107-11.28 0-4.077.703-7.766 2.107-11.07 1.405-3.303 3.306-6.114 5.704-8.433 2.398-2.32 5.19-4.112 8.376-5.377 3.186-1.265 6.595-1.898 10.226-1.898 3.632 0 7.143.703 10.535 2.109 3.391 1.406 6.08 3.338 8.067 5.798l-8.427 7.59zm13.586 11.07c0-4.006.703-7.643 2.107-10.911 1.405-3.268 3.306-6.062 5.704-8.381 2.398-2.32 5.242-4.112 8.53-5.377 3.29-1.265 6.783-1.898 10.483-1.898s7.194.633 10.483 1.898c3.289 1.265 6.132 3.057 8.53 5.377 2.398 2.319 4.3 5.113 5.704 8.38 1.405 3.269 2.107 6.906 2.107 10.912 0 4.006-.702 7.66-2.107 10.964-1.404 3.303-3.306 6.132-5.704 8.486-2.398 2.354-5.241 4.2-8.53 5.535-3.289 1.335-6.783 2.003-10.483 2.003s-7.194-.668-10.483-2.003c-3.288-1.336-6.132-3.18-8.53-5.535-2.398-2.354-4.3-5.183-5.704-8.486-1.404-3.304-2.107-6.958-2.107-10.964zm12.539 0c0 1.968.291 3.935.873 5.903.583 1.968 1.456 3.725 2.621 5.271 1.165 1.547 2.638 2.812 4.42 3.796 1.78.984 3.905 1.476 6.371 1.476 2.467 0 4.59-.492 6.372-1.476s3.255-2.25 4.42-3.796c1.164-1.546 2.038-3.303 2.62-5.27.583-1.969.874-3.936.874-5.904a20.18 20.18 0 00-.874-5.851 16.508 16.508 0 00-2.62-5.219c-1.165-1.546-2.638-2.793-4.42-3.742-1.781-.949-3.905-1.423-6.372-1.423-2.466 0-4.59.474-6.372 1.423-1.781.949-3.254 2.196-4.419 3.742a16.508 16.508 0 00-2.62 5.219 20.18 20.18 0 00-.874 5.85zm53.051-25.09H296.4v8.117h.205c1.096-2.53 2.998-4.762 5.704-6.694 2.706-1.933 5.91-2.9 9.61-2.9 3.22 0 5.977.58 8.273 1.74 2.295 1.16 4.18 2.688 5.652 4.586 1.473 1.897 2.552 4.076 3.238 6.536a28.155 28.155 0 011.027 7.59V79.7h-12.332V51.657a36.81 36.81 0 00-.309-4.639c-.205-1.616-.65-3.075-1.336-4.375a9.014 9.014 0 00-2.826-3.215c-1.2-.844-2.792-1.265-4.78-1.265-1.986 0-3.699.404-5.138 1.212-1.439.808-2.62 1.845-3.545 3.11-.925 1.265-1.628 2.723-2.107 4.375-.48 1.652-.72 3.32-.72 5.007V79.7h-12.333V29.096zm52.847 0h13.36l10.277 36.264h.206l10.586-36.265h13.155L395.8 65.361h.206l10.483-36.265h12.846L402.276 79.7h-12.539l-11.202-35.422h-.205L367.23 79.7h-12.538l-17.163-50.603zm120.265 44.171h-.308c-1.234 2.25-3.22 4.094-5.961 5.535-2.74 1.44-5.858 2.16-9.352 2.16-1.987 0-4.06-.263-6.218-.79a18.269 18.269 0 01-5.961-2.635c-1.816-1.23-3.323-2.847-4.522-4.85-1.2-2.003-1.799-4.48-1.799-7.432 0-3.795 1.045-6.817 3.135-9.066 2.09-2.25 4.779-3.971 8.068-5.166 3.288-1.195 6.937-1.985 10.945-2.372 4.008-.386 7.93-.58 11.768-.58v-1.265c0-3.162-1.114-5.5-3.34-7.01-2.227-1.511-4.882-2.267-7.966-2.267a17.47 17.47 0 00-7.502 1.687c-2.398 1.124-4.385 2.495-5.96 4.111l-6.373-7.695a27.708 27.708 0 019.712-6.01c3.666-1.335 7.383-2.003 11.151-2.003 4.385 0 8 .633 10.843 1.898s5.087 2.917 6.731 4.955a17.89 17.89 0 013.443 6.852c.651 2.53.977 5.06.977 7.59V79.7h-11.51v-6.43zm-.205-16.657h-2.775c-1.987 0-4.077.088-6.27.264-2.192.176-4.213.562-6.063 1.16-1.85.597-3.392 1.44-4.625 2.53-1.233 1.09-1.85 2.583-1.85 4.48 0 1.195.257 2.196.77 3.005a5.984 5.984 0 002.005 1.95 8.805 8.805 0 002.775 1.054c1.028.211 2.055.316 3.083.316 4.248 0 7.468-1.16 9.66-3.478 2.193-2.32 3.29-5.482 3.29-9.488V56.61zM483.919 0h12.333v79.699h-12.333V0zm27.564 0h12.333v79.699h-12.333V0zm62.096 49.337a15.97 15.97 0 00-.668-4.638 10.696 10.696 0 00-2.107-3.9c-.96-1.125-2.176-2.021-3.649-2.69-1.473-.667-3.203-1-5.19-1-3.7 0-6.834 1.141-9.404 3.426-2.569 2.284-3.99 5.218-4.265 8.802h25.283zm12.332 5.693v1.687c0 .562-.034 1.124-.102 1.687h-37.513c.137 1.827.6 3.496 1.388 5.007a12.682 12.682 0 003.134 3.9 15.5 15.5 0 004.42 2.584c1.644.632 3.357.948 5.138.948 3.084 0 5.687-.58 7.811-1.74a14.761 14.761 0 005.242-4.796l8.221 6.747c-4.864 6.747-11.921 10.12-21.17 10.12-3.838 0-7.366-.614-10.587-1.844-3.22-1.23-6.012-2.97-8.376-5.219-2.363-2.249-4.213-5.007-5.55-8.275-1.335-3.268-2.003-6.976-2.003-11.122 0-4.076.668-7.784 2.004-11.122 1.336-3.339 3.168-6.185 5.498-8.54 2.33-2.354 5.087-4.181 8.273-5.481 3.186-1.3 6.63-1.95 10.329-1.95 3.426 0 6.595.58 9.507 1.739a20.589 20.589 0 017.553 5.166c2.124 2.284 3.786 5.13 4.985 8.539 1.199 3.408 1.798 7.397 1.798 11.965zm4.851-15.813v-10.12h8.633V14.442h12.128v14.653h12.332v10.12h-12.332v23.51c0 2.249.394 4.111 1.181 5.587.788 1.476 2.553 2.214 5.293 2.214.823 0 1.713-.088 2.672-.263.96-.176 1.816-.44 2.57-.791l.41 9.91c-1.095.421-2.397.755-3.905 1.001a26.826 26.826 0 01-4.316.369c-3.289 0-5.96-.474-8.016-1.423-2.056-.949-3.683-2.25-4.882-3.9-1.2-1.652-2.021-3.55-2.467-5.694-.445-2.143-.668-4.445-.668-6.905V39.217h-8.633zm39.794 33.102c0-2.249.805-4.181 2.415-5.798 1.61-1.616 3.546-2.425 5.807-2.425 2.193 0 4.111.773 5.755 2.32 1.645 1.546 2.467 3.443 2.467 5.692 0 2.25-.805 4.182-2.415 5.799-1.61 1.616-3.546 2.424-5.807 2.424a7.94 7.94 0 01-3.134-.632 8.91 8.91 0 01-2.621-1.687 7.832 7.832 0 01-1.799-2.53 7.58 7.58 0 01-.668-3.163z" fill-rule="nonzero"/>
    <path d="M99.914 105L0 98.565 7.153 88.42l97.915 5.91z"/>
  </g>
</svg>
