<svg width="75" height="75" 
  xmlns="http://www.w3.org/2000/svg">
  <g fill="none" fill-rule="evenodd">
    <circle fill="#20d261" fill-rule="nonzero" cx="37.5" cy="37.5" r="37.5"/>
    <path d="M18.417 34.924h6.192c1.296 0 2.268-.288 2.916-.864.648-.576.972-1.512.972-2.808 0-1.248-.324-2.154-.972-2.718-.648-.564-1.62-.846-2.916-.846h-6.192v7.236zm-5.652-11.628h13.86c1.152 0 2.19.186 3.114.558a7.167 7.167 0 012.376 1.53 6.642 6.642 0 011.512 2.25c.348.852.522 1.77.522 2.754 0 1.512-.318 2.82-.954 3.924-.636 1.104-1.674 1.944-3.114 2.52v.072c.696.192 1.272.486 1.728.882a4.89 4.89 0 011.116 1.404c.288.54.498 1.134.63 1.782.132.648.222 1.296.27 1.944.024.408.048.888.072 1.44.024.552.066 1.116.126 1.692.06.576.156 1.122.288 1.638.132.516.33.954.594 1.314h-5.652c-.312-.816-.504-1.788-.576-2.916a43.524 43.524 0 00-.324-3.24c-.192-1.344-.6-2.328-1.224-2.952-.624-.624-1.644-.936-3.06-.936h-5.652V49h-5.652V23.296zm27.377 0h5.616L56.486 40.54h.072V23.296h5.292V49h-5.652L45.506 31.792h-.072V49h-5.292V23.296z" fill="#ffffff" fill-rule="nonzero"/>
    <path d="M31.225 57a27.443 27.443 0 0014.55 0h0" stroke="#ffffff" stroke-linecap="square"/>
  </g>
</svg>
